<svg>
    <svg id="community" width="24" height="24" viewBox="0 0 24 24" fill="none" xmlns="http://www.w3.org/2000/svg">
    <path d="M4.5 4.50002C4.5 3.70437 4.81607 2.94131 5.37868 2.3787C5.94129 1.81609 6.70435 1.50002 7.5 1.50002C8.29565 1.50002 9.05871 1.81609 9.62132 2.3787C10.1839 2.94131 10.5 3.70437 10.5 4.50002C10.5 5.29567 10.1839 6.05873 9.62132 6.62134C9.05871 7.18395 8.29565 7.50002 7.5 7.50002C6.70435 7.50002 5.94129 7.18395 5.37868 6.62134C4.81607 6.05873 4.5 5.29567 4.5 4.50002ZM7.5 3.00002C7.10218 3.00002 6.72064 3.15805 6.43934 3.43936C6.15804 3.72066 6 4.10219 6 4.50002C6 4.89784 6.15804 5.27937 6.43934 5.56068C6.72064 5.84198 7.10218 6.00002 7.5 6.00002C7.89782 6.00002 8.27936 5.84198 8.56066 5.56068C8.84196 5.27937 9 4.89784 9 4.50002C9 4.10219 8.84196 3.72066 8.56066 3.43936C8.27936 3.15805 7.89782 3.00002 7.5 3.00002ZM14.6685 6.87602C14.3542 6.63631 14.0904 6.33686 13.8923 5.99488C13.6941 5.65291 13.5655 5.27514 13.5137 4.88329C13.462 4.49145 13.4882 4.09324 13.5909 3.71156C13.6935 3.32987 13.8706 2.97224 14.1119 2.6592C14.3532 2.34616 14.654 2.08389 14.997 1.88745C15.3399 1.69102 15.7184 1.5643 16.1105 1.51457C16.5026 1.46483 16.9006 1.49307 17.2818 1.59766C17.663 1.70225 18.0197 1.88113 18.3315 2.12402C18.9454 2.61512 19.3421 3.32761 19.436 4.10817C19.53 4.88873 19.3138 5.67499 18.8339 6.29776C18.3541 6.92053 17.6489 7.33005 16.8702 7.43819C16.0915 7.54633 15.2999 7.34446 14.6685 6.87602ZM16.5 3.00002C16.1022 3.00002 15.7206 3.15805 15.4393 3.43936C15.158 3.72066 15 4.10219 15 4.50002C15 4.89784 15.158 5.27937 15.4393 5.56068C15.7206 5.84198 16.1022 6.00002 16.5 6.00002C16.8978 6.00002 17.2794 5.84198 17.5607 5.56068C17.842 5.27937 18 4.89784 18 4.50002C18 4.10219 17.842 3.72066 17.5607 3.43936C17.2794 3.15805 16.8978 3.00002 16.5 3.00002ZM3.75 9.00002H7.755C7.59 9.46952 7.5 9.97502 7.5 10.5H3.75C3.55109 10.5 3.36032 10.579 3.21967 10.7197C3.07902 10.8603 3 11.0511 3 11.25C3 12.4755 3.4875 13.3845 4.257 14.0025C4.611 14.2875 5.0355 14.517 5.5155 14.685C5.16301 15.0597 4.89138 15.5029 4.7175 15.987C4.214 15.7848 3.74257 15.5104 3.318 15.1725C2.19 14.265 1.5 12.924 1.5 11.25C1.5 10.6533 1.73705 10.081 2.15901 9.65903C2.58097 9.23707 3.15326 9.00002 3.75 9.00002ZM9.402 9.00002C9.00418 9.68945 8.89652 10.5087 9.10272 11.2775C9.30891 12.0463 9.81207 12.7017 10.5015 13.0995C11.1909 13.4973 12.0102 13.605 12.779 13.3988C13.5478 13.1926 14.2032 12.6894 14.601 12C14.9988 11.3106 15.1065 10.4914 14.9003 9.72255C14.6941 8.95375 14.1909 8.29834 13.5015 7.90052C12.8121 7.50269 11.9928 7.39504 11.224 7.60123C10.4552 7.80743 9.79982 8.31059 9.402 9.00002ZM11.664 9.03752C11.8838 8.98787 12.1119 8.98822 12.3315 9.03854C12.5511 9.08886 12.7567 9.18787 12.9329 9.32825C13.1091 9.46864 13.2516 9.64681 13.3497 9.84962C13.4479 10.0524 13.4992 10.2747 13.5 10.5C13.4999 10.7822 13.4201 11.0587 13.27 11.2977C13.1198 11.5366 12.9052 11.7283 12.6509 11.8508C12.3966 11.9733 12.113 12.0215 11.8325 11.99C11.5521 11.9585 11.2862 11.8485 11.0654 11.6727C10.8447 11.4968 10.678 11.2623 10.5846 10.9959C10.4911 10.7296 10.4747 10.4424 10.5373 10.1671C10.5998 9.89191 10.7387 9.63992 10.938 9.44009C11.1373 9.24027 11.3889 9.10074 11.664 9.03752ZM19.743 14.0025C19.389 14.2875 18.9645 14.517 18.4845 14.685C18.8364 15.0598 19.1076 15.503 19.281 15.987C19.791 15.7785 20.2635 15.507 20.682 15.1725C21.81 14.265 22.5 12.924 22.5 11.25C22.5 10.6533 22.2629 10.081 21.841 9.65903C21.419 9.23707 20.8467 9.00002 20.25 9.00002H16.245C16.41 9.46952 16.5 9.97502 16.5 10.5H20.25C20.4489 10.5 20.6397 10.579 20.7803 10.7197C20.921 10.8603 21 11.0511 21 11.25C21 12.4755 20.5125 13.3845 19.743 14.0025ZM15.75 15C16.3467 15 16.919 15.2371 17.341 15.659C17.7629 16.081 18 16.6533 18 17.25C18 18.924 17.3115 20.265 16.182 21.1725C15.0705 22.065 13.5795 22.5 12 22.5C10.4205 22.5 8.9295 22.065 7.818 21.1725C6.69 20.265 6 18.924 6 17.25C5.99921 16.9543 6.05687 16.6614 6.16966 16.388C6.28245 16.1147 6.44815 15.8664 6.65724 15.6573C6.86633 15.4482 7.11469 15.2825 7.38803 15.1697C7.66137 15.0569 7.9543 14.9992 8.25 15H15.75ZM15.75 16.5H8.25C8.05109 16.5 7.86032 16.579 7.71967 16.7197C7.57902 16.8603 7.5 17.0511 7.5 17.25C7.5 18.4755 7.9875 19.3845 8.757 20.0025C9.546 20.6355 10.68 21 12 21C13.32 21 14.454 20.6355 15.243 20.0025C16.0125 19.3845 16.5 18.4755 16.5 17.25C16.5 17.0511 16.421 16.8603 16.2803 16.7197C16.1397 16.579 15.9489 16.5 15.75 16.5Z" fill="#69FB8C"/>
    </svg>

    <svg id="arrow-up-green" width="51" height="51" viewBox="0 0 51 51" fill="none" xmlns="http://www.w3.org/2000/svg">
    <path d="M29.7958 17.5L12.3603 34.9355L12.0068 35.289L12.3603 35.6426L15.3655 38.6478L15.7191 39.0013L16.0726 38.6478L33.508 21.2123V36.125V36.625H34.008H38.258H38.758V36.125V12.75V12.25H38.258H14.8831H14.3831V12.75V17V17.5H14.8831H29.7958Z" fill="#69FB8C" stroke="#69FB8C"/>
    </svg>

    <svg id="arrow-up-white" width="51" height="51" viewBox="0 0 51 51" fill="none" xmlns="http://www.w3.org/2000/svg">
    <path d="M29.4243 17.6538L12.2515 34.8267L11.7892 35.289L12.2515 35.7514L15.2567 38.7565L15.7191 39.2189L16.1814 38.7565L33.3542 21.5837V36.125V36.7788H34.008H38.258H38.9119V36.125V12.75V12.0962H38.258H14.8831H14.2293V12.75V17V17.6538H14.8831H29.4243Z" fill="white" stroke="white" stroke-width="1.30769"/>
    </svg>

    <svg id="facebook" width="24" height="24" viewBox="0 0 24 24" fill="none" xmlns="http://www.w3.org/2000/svg">
    <path d="M22 12.3038C22 6.74719 17.5229 2.24268 12 2.24268C6.47715 2.24268 2 6.74719 2 12.3038C2 17.3255 5.65684 21.4879 10.4375 22.2427V15.2121H7.89844V12.3038H10.4375V10.0872C10.4375 7.56564 11.9305 6.1728 14.2146 6.1728C15.3088 6.1728 16.4531 6.36931 16.4531 6.36931V8.84529H15.1922C13.95 8.84529 13.5625 9.6209 13.5625 10.4166V12.3038H16.3359L15.8926 15.2121H13.5625V22.2427C18.3432 21.4879 22 17.3257 22 12.3038Z" fill="black"/>
    </svg>

    <svg id="instagram" width="24" height="24" viewBox="0 0 24 24" fill="none" xmlns="http://www.w3.org/2000/svg">
    <path fill-rule="evenodd" clip-rule="evenodd" d="M16 3.24268H8C5.23858 3.24268 3 5.48126 3 8.24268V16.2427C3 19.0041 5.23858 21.2427 8 21.2427H16C18.7614 21.2427 21 19.0041 21 16.2427V8.24268C21 5.48126 18.7614 3.24268 16 3.24268ZM19.25 16.2427C19.2445 18.0353 17.7926 19.4872 16 19.4927H8C6.20735 19.4872 4.75549 18.0353 4.75 16.2427V8.24268C4.75549 6.45003 6.20735 4.99817 8 4.99268H16C17.7926 4.99817 19.2445 6.45003 19.25 8.24268V16.2427ZM16.75 8.49268C17.3023 8.49268 17.75 8.04496 17.75 7.49268C17.75 6.9404 17.3023 6.49268 16.75 6.49268C16.1977 6.49268 15.75 6.9404 15.75 7.49268C15.75 8.04496 16.1977 8.49268 16.75 8.49268ZM12 7.74268C9.51472 7.74268 7.5 9.7574 7.5 12.2427C7.5 14.728 9.51472 16.7427 12 16.7427C14.4853 16.7427 16.5 14.728 16.5 12.2427C16.5027 11.0484 16.0294 9.90225 15.1849 9.05776C14.3404 8.21327 13.1943 7.74002 12 7.74268ZM9.25 12.2427C9.25 13.7615 10.4812 14.9927 12 14.9927C13.5188 14.9927 14.75 13.7615 14.75 12.2427C14.75 10.7239 13.5188 9.49268 12 9.49268C10.4812 9.49268 9.25 10.7239 9.25 12.2427Z" fill="black"/>
    </svg>

    <svg id="twitter" width="24" height="24" viewBox="0 0 24 24" fill="none" xmlns="http://www.w3.org/2000/svg">
    <path d="M17.1761 4.24268H19.9362L13.9061 11.0201L21 20.2427H15.4456L11.0951 14.6493L6.11723 20.2427H3.35544L9.80517 12.9935L3 4.24268H8.69545L12.6279 9.3553L17.1761 4.24268ZM16.2073 18.6181H17.7368L7.86441 5.78196H6.2232L16.2073 18.6181Z" fill="black"/>
    </svg>

    <svg id="linkedin" width="24" height="24" viewBox="0 0 24 24" fill="none" xmlns="http://www.w3.org/2000/svg">
    <path fill-rule="evenodd" clip-rule="evenodd" d="M4.5 3.24268C3.67157 3.24268 3 3.91425 3 4.74268V19.7427C3 20.5711 3.67157 21.2427 4.5 21.2427H19.5C20.3284 21.2427 21 20.5711 21 19.7427V4.74268C21 3.91425 20.3284 3.24268 19.5 3.24268H4.5ZM8.52076 7.2454C8.52639 8.20165 7.81061 8.79087 6.96123 8.78665C6.16107 8.78243 5.46357 8.1454 5.46779 7.24681C5.47201 6.40165 6.13998 5.72243 7.00764 5.74212C7.88795 5.76181 8.52639 6.40728 8.52076 7.2454ZM12.2797 10.0044H9.75971H9.7583V18.5643H12.4217V18.3646C12.4217 17.9847 12.4214 17.6047 12.4211 17.2246C12.4203 16.2108 12.4194 15.1959 12.4246 14.1824C12.426 13.9363 12.4372 13.6804 12.5005 13.4455C12.7381 12.568 13.5271 12.0013 14.4074 12.1406C14.9727 12.2291 15.3467 12.5568 15.5042 13.0898C15.6013 13.423 15.6449 13.7816 15.6491 14.129C15.6605 15.1766 15.6589 16.2242 15.6573 17.2719C15.6567 17.6417 15.6561 18.0117 15.6561 18.3815V18.5629H18.328V18.3576C18.328 17.9056 18.3278 17.4537 18.3275 17.0018C18.327 15.8723 18.3264 14.7428 18.3294 13.6129C18.3308 13.1024 18.276 12.599 18.1508 12.1054C17.9638 11.3713 17.5771 10.7638 16.9485 10.3251C16.5027 10.0129 16.0133 9.81178 15.4663 9.78928C15.404 9.78669 15.3412 9.7833 15.2781 9.77989C14.9984 9.76477 14.7141 9.74941 14.4467 9.80334C13.6817 9.95662 13.0096 10.3068 12.5019 10.9241C12.4429 10.9949 12.3852 11.0668 12.2991 11.1741L12.2797 11.1984V10.0044ZM5.68164 18.5671H8.33242V10.01H5.68164V18.5671Z" fill="black"/>
    </svg>

    <svg id="youtube" width="24" height="24" viewBox="0 0 24 24" fill="none" xmlns="http://www.w3.org/2000/svg">
    <path d="M21.5933 7.20301C21.4794 6.78041 21.2568 6.39501 20.9477 6.08518C20.6386 5.77534 20.2537 5.55187 19.8313 5.43701C18.2653 5.00701 12.0003 5.00001 12.0003 5.00001C12.0003 5.00001 5.73633 4.99301 4.16933 5.40401C3.74725 5.52415 3.36315 5.75078 3.0539 6.06214C2.74464 6.3735 2.52062 6.75913 2.40333 7.18201C1.99033 8.74801 1.98633 11.996 1.98633 11.996C1.98633 11.996 1.98233 15.26 2.39233 16.81C2.62233 17.667 3.29733 18.344 4.15533 18.575C5.73733 19.005 11.9853 19.012 11.9853 19.012C11.9853 19.012 18.2503 19.019 19.8163 18.609C20.2388 18.4943 20.6241 18.2714 20.934 17.9622C21.2439 17.653 21.4677 17.2682 21.5833 16.846C21.9973 15.281 22.0003 12.034 22.0003 12.034C22.0003 12.034 22.0203 8.76901 21.5933 7.20301ZM9.99633 15.005L10.0013 9.00501L15.2083 12.01L9.99633 15.005Z" fill="black"/>
    </svg>

    <svg id="education" width="48" height="48" viewBox="0 0 48 48" fill="none" xmlns="http://www.w3.org/2000/svg">
    <path d="M24 1.17188L36 13.1719V18.0005H44V38.0004H46V42.0004H2V38.0004H4V18.0005H12V13.1719L24 1.17188ZM36 38.0004H40V22.0004H36V38.0004ZM12 22.0004H8V38.0004H12V22.0004ZM16 14.8287V38.0004H22V24.0004H26V38.0004H32V14.8287L24 6.82872L16 14.8287Z" fill="#1D2130"/>
    </svg>

    <svg id="health" width="48" height="48" viewBox="0 0 48 48" fill="none" xmlns="http://www.w3.org/2000/svg">
    <path d="M16 40V28H32V40H38V8H10V40H16ZM20 40H28V32H20V40ZM42 40H46V44H2V40H6V6C6 4.89544 6.89544 4 8 4H40C41.1046 4 42 4.89544 42 6V40ZM22 16V12H26V16H30V20H26V24H22V20H18V16H22Z" fill="#1D2130"/>
    </svg>

    <svg id="outreach-logo" width="169" height="48" viewBox="0 0 169 48" fill="none" xmlns="http://www.w3.org/2000/svg">
    <path d="M166.801 20.3365C167.789 21.3846 168.286 22.8055 168.286 24.6058V34.0765H164.621V25.6795C164.621 24.6186 164.322 23.7828 163.723 23.172C163.123 22.5612 162.314 22.2526 161.288 22.2526C160.077 22.2718 159.114 22.6898 158.407 23.4999C157.699 24.31 157.342 25.3516 157.342 26.6182V34.0765H153.703V13.0325H157.342V21.796C158.369 19.8093 160.172 18.7999 162.747 18.7613C164.456 18.7613 165.813 19.2821 166.801 20.3365ZM145.608 22.0211C144.397 22.0211 143.409 22.439 142.657 23.2684C141.905 24.1043 141.523 25.178 141.523 26.5025C141.523 27.8656 141.905 28.9586 142.657 29.7944C143.416 30.6239 144.397 31.0418 145.615 31.0418C147.406 31.0418 148.751 30.4438 149.649 29.2544L151.918 31.1575C151.249 32.1412 150.331 32.9256 149.261 33.4272C148.158 33.9544 146.883 34.218 145.424 34.218C143.951 34.218 142.638 33.8965 141.491 33.2536C140.363 32.6299 139.432 31.6847 138.82 30.5467C138.183 29.3829 137.864 28.0456 137.864 26.5346C137.864 25.0044 138.189 23.6478 138.833 22.4776C139.451 21.3267 140.388 20.388 141.523 19.7579C142.67 19.1149 143.989 18.7934 145.487 18.7934C146.851 18.7934 148.069 19.0313 149.139 19.5135C150.21 19.9958 151.083 20.6837 151.759 21.571L149.547 23.6992C148.521 22.5805 147.215 22.0211 145.608 22.0211ZM135.538 18.9027V34.0765H131.898V31.6654C131.382 32.4756 130.662 33.1378 129.814 33.5815C128.966 34.0251 127.991 34.2501 126.889 34.2501C125.467 34.2501 124.224 33.9222 123.147 33.2728C122.076 32.6235 121.235 31.704 120.642 30.521C120.05 29.3379 119.75 27.9813 119.75 26.4511C119.75 24.9401 120.05 23.6028 120.649 22.439C121.242 21.2753 122.083 20.3751 123.154 19.7322C124.224 19.0892 125.461 18.7677 126.863 18.7677C127.966 18.7677 128.947 18.9928 129.801 19.4364C130.656 19.88 131.382 20.5359 131.898 21.3524V18.9156L135.538 18.9027ZM130.579 30.0323C131.344 29.2865 131.784 28.2964 131.898 27.0683V25.9946C131.784 24.7601 131.35 23.7764 130.585 23.0305C129.821 22.2847 128.852 21.9118 127.673 21.9118C126.423 21.9118 125.404 22.3426 124.62 23.2041C123.836 24.0657 123.434 25.178 123.415 26.5346C123.434 27.8977 123.836 29.0036 124.62 29.8652C125.404 30.7267 126.423 31.1575 127.673 31.1575C128.845 31.1575 129.814 30.7846 130.579 30.0323ZM116.085 20.8573C117.29 22.2397 117.889 24.175 117.889 26.6697C117.889 27.1583 117.876 27.5312 117.863 27.7756H106.805C107.047 28.8557 107.544 29.698 108.303 30.3152C109.055 30.9325 109.985 31.2347 111.088 31.2347C111.84 31.2347 112.592 31.0868 113.287 30.791C113.982 30.5081 114.606 30.0773 115.123 29.5308L117.079 31.6012C116.321 32.4434 115.39 33.0992 114.345 33.53C113.274 33.9865 112.082 34.2116 110.776 34.2116C109.246 34.2116 107.895 33.8901 106.728 33.2471C105.588 32.6299 104.644 31.6847 104.026 30.5403C103.389 29.3765 103.076 28.0392 103.076 26.5282C103.076 25.0173 103.395 23.6735 104.045 22.5033C104.67 21.3524 105.607 20.4008 106.748 19.7643C107.908 19.1085 109.221 18.787 110.693 18.787C113.083 18.787 114.881 19.4814 116.085 20.8573ZM114.562 25.313C114.524 24.1943 114.16 23.307 113.472 22.6448C112.784 21.9825 111.866 21.6482 110.725 21.6482C109.66 21.6482 108.768 21.9761 108.048 22.6255C107.328 23.2749 106.888 24.1686 106.716 25.3066H114.562V25.313ZM99.1182 19.5714C99.985 19.0506 100.998 18.7806 102.159 18.7613V22.3361C100.61 22.2397 99.3732 22.6062 98.449 23.4292C97.5248 24.2521 97.0595 25.3645 97.0595 26.7597V34.0765H93.4201V18.9027H97.0595V21.8218C97.5694 20.838 98.2514 20.0858 99.1182 19.5714ZM90.6921 33.1378C89.5002 33.8772 88.2446 34.2437 86.938 34.2437C85.6505 34.2437 84.5924 33.8579 83.7766 33.0928C82.9544 32.3277 82.5465 31.1961 82.5465 29.7044V15.3536L86.1604 14.9164V19.52H90.4435V22.214H86.1604V29.055C86.1604 29.7559 86.2879 30.2509 86.5492 30.5403C86.8105 30.836 87.1993 30.9775 87.722 30.9775C88.2828 30.9775 88.9903 30.7717 89.8508 30.3538L90.6921 33.1378ZM75.803 18.9027H79.4169V27.4091C79.4169 32.3727 75.9942 34.218 72.5206 34.218C69.0469 34.218 65.6305 32.3727 65.6305 27.4091V18.9027H69.2444V27.5377C69.2444 29.4408 70.6467 30.9839 72.5269 30.9839C74.4072 30.9839 75.8094 29.4408 75.8094 27.5377L75.803 18.9027ZM58.1414 15.3022C59.7029 16.1573 61.0032 17.4239 61.9083 18.9606C62.8261 20.5101 63.2786 22.2333 63.2786 24.1236C63.2786 26.0138 62.8197 27.737 61.9083 29.2994C61.0032 30.8489 59.7029 32.1284 58.1414 33.0028C56.5416 33.9094 54.776 34.3659 52.832 34.3659C50.888 34.3659 49.1225 33.9094 47.5291 33.0028C45.9675 32.1284 44.6673 30.8489 43.7622 29.2994C42.8507 27.737 42.3918 26.0138 42.3918 24.1236C42.3918 22.2333 42.8507 20.5101 43.7622 18.9606C44.6673 17.4175 45.9675 16.1573 47.5291 15.3022C49.1225 14.4149 50.8944 13.9713 52.832 13.9713C54.776 13.9648 56.5479 14.4085 58.1414 15.3022ZM49.5623 18.2662C48.5489 18.8449 47.7075 19.6871 47.1275 20.703C46.5284 21.7382 46.2288 22.8762 46.2288 24.1236C46.2288 25.3709 46.5348 26.5154 47.1403 27.5569C47.7267 28.5793 48.568 29.428 49.575 30.0259C50.5948 30.6303 51.6975 30.9325 52.8958 30.9325C54.0494 30.9389 55.1839 30.6239 56.1719 30.0259C57.1726 29.428 57.9948 28.5793 58.5684 27.5569C59.1612 26.5089 59.4607 25.3259 59.448 24.1236C59.448 22.8762 59.1548 21.7382 58.5684 20.703C58.0011 19.6936 57.1726 18.8513 56.1719 18.2662C55.1776 17.6747 54.0494 17.3661 52.8958 17.3725C51.723 17.3661 50.5757 17.6747 49.5623 18.2662ZM14.9656 5.4585C20.1219 5.4585 27.9107 7.05946 31.531 10.7307C32.4488 11.663 33.6534 13.4826 33.6534 16.1573C33.6534 20.9023 29.8738 28.187 25.7053 32.4177C23.551 34.6038 20.1219 37.4585 15.5073 37.4585C10.9947 37.4585 7.5529 34.3594 6.55859 33.3436C2.73434 29.473 0 23.5963 0 18.1248C0 14.6656 0.975184 11.6437 3.45457 9.12978C5.74912 6.80871 9.70722 5.4585 14.9656 5.4585ZM21.3457 24.3936C23.0857 22.6319 23.5574 20.4587 23.5574 19.2628C23.5574 18.3948 23.3343 17.1282 22.2635 16.0416C20.6255 14.3763 18.8026 13.907 16.8267 13.907C14.3218 13.907 12.6391 14.7107 11.5174 15.8423C10.6378 16.7424 9.87932 18.1055 9.87932 20.0536C9.87932 21.9954 10.9055 23.8728 12.0145 25.0044C13.0471 26.046 14.666 26.8175 16.2913 26.8175C17.923 26.8175 19.6057 26.1553 21.3457 24.3936Z" fill="#5952FF"/>
    </svg>

    <svg id="stripe-logo" width="81" height="48" viewBox="0 0 81 48" fill="none" xmlns="http://www.w3.org/2000/svg">
    <g clip-path="url(#clip0_406_204)">
    <path fill-rule="evenodd" clip-rule="evenodd" d="M79.506 25.8169C79.506 20.1774 76.7743 15.7274 71.5534 15.7274C66.3104 15.7274 63.1381 20.1774 63.1381 25.7728C63.1381 32.4037 66.8831 35.7521 72.2583 35.7521C74.8798 35.7521 76.8624 35.1573 78.3604 34.3202V29.9143C76.8624 30.6633 75.1441 31.126 72.9632 31.126C70.8264 31.126 68.9319 30.377 68.6895 27.7775H79.4619C79.4619 27.4911 79.506 26.3456 79.506 25.8169ZM68.6235 23.7241C68.6235 21.2348 70.1435 20.1994 71.5313 20.1994C72.8751 20.1994 74.307 21.2348 74.307 23.7241H68.6235Z" fill="#635BFF"/>
    <path fill-rule="evenodd" clip-rule="evenodd" d="M54.6347 15.7274C52.4758 15.7274 51.0879 16.7408 50.3169 17.4457L50.0305 16.0799H45.1841V41.7661L50.6914 40.5986L50.7134 34.3643C51.5065 34.937 52.674 35.7521 54.6126 35.7521C58.5559 35.7521 62.1467 32.5799 62.1467 25.5966C62.1246 19.2081 58.4898 15.7274 54.6347 15.7274ZM53.3129 30.9056C52.0132 30.9056 51.2421 30.443 50.7134 29.8703L50.6914 21.6974C51.2642 21.0585 52.0572 20.6179 53.3129 20.6179C55.3176 20.6179 56.7054 22.8649 56.7054 25.7508C56.7054 28.7027 55.3396 30.9056 53.3129 30.9056Z" fill="#635BFF"/>
    <path fill-rule="evenodd" clip-rule="evenodd" d="M37.6059 14.4277L43.1352 13.2381V8.76611L37.6059 9.93367V14.4277Z" fill="#635BFF"/>
    <path d="M43.1352 16.1019H37.6059V35.3776H43.1352V16.1019Z" fill="#635BFF"/>
    <path fill-rule="evenodd" clip-rule="evenodd" d="M31.6797 17.7321L31.3273 16.1019H26.5689V35.3776H32.0763V22.3142C33.376 20.6179 35.5789 20.9263 36.2618 21.1686V16.1019C35.5569 15.8375 32.9795 15.3529 31.6797 17.7321Z" fill="#635BFF"/>
    <path fill-rule="evenodd" clip-rule="evenodd" d="M20.6652 11.3215L15.2901 12.467L15.268 30.1125C15.268 33.3729 17.7133 35.7741 20.9736 35.7741C22.7801 35.7741 24.1018 35.4436 24.8288 35.0471V30.5751C24.1238 30.8615 20.6432 31.8749 20.6432 28.6145V20.7941H24.8288V16.1019H20.6432L20.6652 11.3215Z" fill="#635BFF"/>
    <path fill-rule="evenodd" clip-rule="evenodd" d="M5.77362 21.6974C5.77362 20.8383 6.47856 20.5078 7.64611 20.5078C9.32034 20.5078 11.4352 21.0145 13.1094 21.9177V16.7408C11.281 16.0138 9.47455 15.7274 7.64611 15.7274C3.17416 15.7274 0.200195 18.0626 0.200195 21.9618C0.200195 28.0418 8.57135 27.0726 8.57135 29.694C8.57135 30.7074 7.69017 31.0378 6.45653 31.0378C4.62809 31.0378 2.29298 30.2888 0.442518 29.2755V34.5185C2.49125 35.3996 4.56201 35.7742 6.45653 35.7742C11.0386 35.7742 14.1888 33.5051 14.1888 29.5619C14.1668 22.9971 5.77362 24.1647 5.77362 21.6974Z" fill="#635BFF"/>
    </g>
    <defs>
    <clipPath id="clip0_406_204">
    <rect width="80" height="48" fill="white" transform="translate(0.200195)"/>
    </clipPath>
    </defs>
    </svg>

    <svg id="code-academy-logo" width="168" height="48" viewBox="0 0 168 48" fill="none" xmlns="http://www.w3.org/2000/svg">
    <g clip-path="url(#clip0_406_206)">
    <path d="M7.14975 30.5281C6.84992 29.6186 6.70117 28.4707 6.70117 26.9272C6.70117 25.3831 6.84992 24.2328 7.14975 23.3257C7.98741 20.7229 10.2064 19.3008 13.1119 19.3008C15.2697 19.3008 16.9782 20.1787 18.118 21.5711C18.2061 21.6913 18.2359 21.8727 18.0877 21.9934L16.2006 23.6582C16.0501 23.7801 15.9008 23.7498 15.7801 23.5987C15.0602 22.7821 14.3113 22.3271 13.1125 22.3271C11.8245 22.3271 10.8364 22.9629 10.4158 24.234C10.1778 24.962 10.1165 25.8084 10.1165 26.9278C10.1165 28.0472 10.1772 28.9245 10.4158 29.6513C10.8358 30.8909 11.8245 31.5267 13.1125 31.5267C14.3113 31.5267 15.0602 31.0723 15.7801 30.2574C15.9008 30.104 16.0501 30.104 16.2006 30.2253L18.0877 31.8901C18.2359 32.0109 18.2061 32.1625 18.118 32.3142C16.9788 33.6768 15.2702 34.5536 13.1119 34.5536C10.2064 34.5524 7.98741 33.1291 7.14975 30.5281Z" fill="#204156"/>
    <path d="M72.6224 30.5281C72.3226 29.6186 72.1738 28.4707 72.1738 26.9272C72.1738 25.3831 72.3226 24.2328 72.6224 23.3257C73.4618 20.7229 75.6785 19.3008 78.584 19.3008C80.7423 19.3008 82.4515 20.1787 83.5895 21.5711C83.6788 21.6913 83.7097 21.8727 83.5586 21.9934L81.671 23.6582C81.521 23.7801 81.3723 23.7498 81.2521 23.5987C80.5335 22.7821 79.7839 22.3271 78.584 22.3271C77.2966 22.3271 76.3073 22.9629 75.8885 24.234C75.6481 24.962 75.5898 25.8084 75.5898 26.9278C75.5898 28.0472 75.6481 28.9245 75.8885 29.6513C76.3073 30.8909 77.2966 31.5267 78.584 31.5267C79.7839 31.5267 80.5335 31.0723 81.2521 30.2574C81.3723 30.104 81.5216 30.104 81.671 30.2253L83.5586 31.8901C83.7097 32.0109 83.6788 32.1625 83.5895 32.3142C82.4515 33.6768 80.7423 34.5536 78.584 34.5536C75.6785 34.5524 73.4618 33.1291 72.6224 30.5281Z" fill="#204156"/>
    <path d="M148.294 34.2205C148.114 34.2205 147.995 34.1003 147.995 33.9172V25.505C147.995 23.6285 147.065 22.3265 145.266 22.3265C143.529 22.3265 142.51 23.6279 142.51 25.505V33.9172C142.51 34.0997 142.389 34.2205 142.211 34.2205H139.453C139.273 34.2205 139.153 34.1003 139.153 33.9172V25.505C139.153 23.6285 138.224 22.3265 136.428 22.3265C134.69 22.3265 133.67 23.6279 133.67 25.505V33.9172C133.67 34.0997 133.55 34.2205 133.37 34.2205H130.613C130.432 34.2205 130.314 34.1003 130.314 33.9172V19.936C130.314 19.754 130.432 19.6327 130.613 19.6327H133.37C133.55 19.6327 133.67 19.754 133.67 19.936V20.9953H133.7C134.33 20.0871 135.588 19.3008 137.505 19.3008C139.214 19.3008 140.592 19.9955 141.46 21.2368H141.491C142.599 20.0276 144.038 19.3008 146.106 19.3008C149.461 19.3008 151.35 21.6002 151.35 24.7175V33.9166C151.35 34.0997 151.229 34.2205 151.049 34.2205H148.294Z" fill="#204156"/>
    <path d="M155.514 39.6657C155.335 39.6657 155.215 39.5444 155.215 39.3618V36.9416C155.215 36.7608 155.335 36.6377 155.514 36.6377H156.054C157.192 36.6377 157.763 36.1255 158.212 34.914L158.632 33.6732L153.357 19.9342C153.297 19.7522 153.417 19.6309 153.598 19.6309H156.564C156.743 19.6309 156.864 19.7522 156.922 19.9342L160.19 29.4669H160.249L163.366 19.9342C163.426 19.7522 163.546 19.6309 163.724 19.6309H166.57C166.752 19.6309 166.872 19.7522 166.81 19.9342L161.298 35.1257C160.04 38.5761 158.84 39.6646 156.444 39.6646L155.514 39.6657Z" fill="#204156"/>
    <path d="M20.876 30.5281C20.5464 29.4973 20.3965 28.5296 20.3965 26.926C20.3965 25.3248 20.5464 24.3559 20.876 23.3292C21.6851 20.7871 23.9005 19.3037 26.8364 19.3037C29.7414 19.3037 31.958 20.7865 32.7671 23.3292C33.0949 24.3559 33.246 25.3248 33.246 26.926C33.246 28.5296 33.0949 29.4973 32.7671 30.5281C31.9574 33.0684 29.7414 34.5507 26.8364 34.5507C23.9005 34.5513 21.6851 33.069 20.876 30.5281ZM29.532 29.6204C29.7723 28.865 29.8318 28.1679 29.8318 26.9266C29.8318 25.6888 29.7723 25.0221 29.532 24.2363C29.1131 23.0271 28.1839 22.3294 26.8364 22.3294C25.4895 22.3294 24.5294 23.0271 24.1111 24.2363C23.8725 25.0226 23.8119 25.6888 23.8119 26.9266C23.8119 28.1679 23.8725 28.865 24.1111 29.6204C24.5294 30.832 25.4901 31.5255 26.8364 31.5255C28.1839 31.525 29.1131 30.8314 29.532 29.6204Z" fill="#204156"/>
    <path d="M91.6188 19.3008C89.2511 19.3008 87.6638 19.8754 86.4943 20.7229C86.3759 20.8151 86.345 20.9644 86.436 21.1155L87.5419 23.114C87.6347 23.2656 87.812 23.296 87.9631 23.1746C88.6526 22.631 89.6402 22.1754 91.2595 22.1754C93.6202 22.1754 94.4217 22.8917 94.4625 24.4661H94.4631V24.4854C94.4642 24.5221 94.4641 24.5595 94.4641 24.5985V29.32C94.4641 30.9842 93.3262 31.7997 91.2595 31.7997C89.6402 31.7997 88.7722 31.1959 88.7722 29.9861C88.7722 28.6235 89.7317 28.0168 91.8883 28.0168L92.5439 28.018C92.7236 28.018 92.8443 27.8967 92.8443 27.7164V25.7763C92.8443 25.5954 92.7236 25.4747 92.5439 25.4747H92.3998L91.3493 25.4741C87.784 25.4741 85.5645 26.9289 85.5645 30.1045C85.5645 33.1618 87.7839 34.553 90.4194 34.553C92.4552 34.553 93.8045 33.8577 94.4939 32.859H94.5232V33.9183C94.5232 34.1003 94.6445 34.2217 94.8236 34.2217H97.34C97.5203 34.2217 97.6404 34.1009 97.6404 33.9183V24.3856C97.641 20.8151 96.0235 19.3008 91.6188 19.3008Z" fill="#204156"/>
    <path d="M55.8192 25.4724C55.741 25.4724 55.6897 25.5243 55.6897 25.6024V25.6888V25.9419V27.5449V27.7602V27.8844C55.6897 27.9626 55.741 28.0151 55.8192 28.0151H55.8939H63.2391C63.4491 28.0151 63.5693 27.8949 63.5693 27.7147C63.5693 25.3522 63.4182 24.353 63.0898 23.3251C62.2796 20.8437 60.123 19.3008 57.1562 19.3008C54.2798 19.3008 52.0632 20.783 51.2529 23.3251C50.9549 24.2631 50.7734 25.4135 50.7734 26.9266C50.7734 28.4397 50.9834 29.5586 51.285 30.4977C52.0935 33.0387 54.2501 34.5518 57.3061 34.5518C59.9719 34.5518 62.0112 33.5228 63.2385 32.0704C63.3575 31.9199 63.3575 31.7688 63.2082 31.6463L61.4419 30.0731C61.2908 29.9523 61.1415 29.9838 60.991 30.1337C60.2729 30.9212 59.2241 31.5261 57.6059 31.5261C55.9895 31.5261 54.8497 30.7398 54.3702 29.3182C54.2979 29.1193 54.2378 28.9105 54.1999 28.6836H54.1993C54.0902 28.0676 54.0261 27.4679 54.0261 26.5871C54.0494 25.757 54.0972 25.2268 54.2151 24.553C54.2162 24.5437 54.218 24.5355 54.2197 24.5268C54.2209 24.5198 54.2221 24.5145 54.2232 24.5075V24.5081C54.2518 24.3495 54.2909 24.2001 54.3393 24.0514C54.729 22.8713 55.8075 22.1754 57.1871 22.1754C58.5358 22.1754 59.6126 22.8713 60.0022 24.0514C60.123 24.4165 60.1819 24.7776 60.1819 25.2933C60.1819 25.414 60.1224 25.4735 60.0022 25.4735H56.0654L56.066 25.4729L55.8192 25.4724Z" fill="#204156"/>
    <path d="M47.991 13.6426H45.2389C45.0574 13.6426 44.9379 13.7633 44.9379 13.943V21.0135V26.8607C44.9379 26.8765 44.9379 26.8922 44.9379 26.9074C44.9379 26.9232 44.9379 26.9389 44.9379 26.9541V27.7305H44.9227C44.8906 28.5646 44.8002 29.113 44.6398 29.6269C44.2507 30.8344 43.3215 31.4988 41.9466 31.4988C40.6002 31.4988 39.6733 30.8344 39.2825 29.6269C39.0737 28.9613 38.985 28.2368 38.985 26.9074C38.985 25.5786 39.0737 24.8523 39.2825 24.1891C39.6658 23.0044 40.5629 22.3353 41.8649 22.309H43.0397C43.0969 22.295 43.1342 22.2501 43.1342 22.1848L43.1494 19.4222C43.1494 19.3516 43.105 19.3043 43.0397 19.2962L42.1017 19.2927H40.9992V19.2933C38.5872 19.3189 36.8215 20.4949 36.0818 22.7961C35.7225 23.9155 35.5732 24.9445 35.5732 26.9074C35.5732 28.8709 35.7225 29.8987 36.0818 31.0158C36.8296 33.3432 38.6251 34.5216 41.078 34.5216C43.024 34.5216 44.2209 33.7976 44.9075 32.799H44.9367V33.8869C44.9367 34.0689 45.0569 34.1896 45.2377 34.1896H47.9898C48.1695 34.1896 48.2896 34.0695 48.2896 33.8869V13.943C48.2908 13.7627 48.1706 13.6426 47.991 13.6426Z" fill="#204156"/>
    <path d="M120.14 25.4724C120.063 25.4724 120.01 25.5243 120.01 25.6024V25.6888V25.9419V27.5449V27.7602V27.8844C120.01 27.9626 120.063 28.0151 120.14 28.0151H120.216H127.561C127.771 28.0151 127.891 27.8949 127.891 27.7147C127.891 25.3522 127.741 24.353 127.412 23.3251C126.602 20.8437 124.445 19.3008 121.479 19.3008C118.602 19.3008 116.386 20.783 115.575 23.3251C115.277 24.2631 115.096 25.4135 115.096 26.9266C115.096 28.4397 115.306 29.5586 115.607 30.4977C116.415 33.0387 118.572 34.5518 121.628 34.5518C124.294 34.5518 126.334 33.5228 127.561 32.0704C127.68 31.9199 127.68 31.7688 127.531 31.6463L125.764 30.0731C125.614 29.9523 125.464 29.9838 125.314 30.1337C124.596 30.9212 123.548 31.5261 121.928 31.5261C120.312 31.5261 119.173 30.7398 118.693 29.3182C118.621 29.1193 118.56 28.9105 118.523 28.6836C118.413 28.0676 118.349 27.4679 118.349 26.5871C118.371 25.757 118.419 25.2268 118.537 24.553C118.54 24.5437 118.541 24.5355 118.542 24.5268C118.543 24.5198 118.544 24.5145 118.546 24.5075V24.5081C118.575 24.3495 118.614 24.2001 118.662 24.0514C119.051 22.8713 120.13 22.1754 121.51 22.1754C122.859 22.1754 123.936 22.8713 124.325 24.0514C124.445 24.4165 124.505 24.7776 124.505 25.2933C124.505 25.414 124.445 25.4735 124.325 25.4735H120.388V25.4729L120.14 25.4724Z" fill="#204156"/>
    <path d="M112.451 13.6426H109.694C109.514 13.6426 109.394 13.7639 109.394 13.9436V21.024V26.8806V26.9266V26.9739V27.7515H109.379C109.346 28.5868 109.255 29.1357 109.095 29.6502C108.705 30.86 107.774 31.5262 106.398 31.5262C105.051 31.5262 104.122 30.86 103.731 29.6502C103.522 28.9834 103.431 28.2584 103.431 26.9266C103.431 25.5961 103.521 24.8681 103.731 24.2043C104.114 23.0178 105.013 22.354 106.317 22.3277L107.494 22.3283C107.674 22.3283 107.794 22.2075 107.794 22.0273V19.6024C107.794 19.4216 107.674 19.3008 107.494 19.3008H107.35L105.571 19.3003C105.557 19.3003 105.543 19.3003 105.53 19.3003C105.516 19.3003 105.504 19.3003 105.491 19.3003H105.45V19.3008C103.035 19.3259 101.267 20.5042 100.526 22.809C100.167 23.9301 100.018 24.9597 100.018 26.9255C100.018 28.8919 100.167 29.922 100.526 31.0408C101.275 33.3706 103.074 34.5513 105.53 34.5513C107.479 34.5513 108.677 33.8268 109.366 32.8264H109.395V33.9155C109.395 34.0986 109.515 34.2188 109.696 34.2188H112.453C112.632 34.2188 112.753 34.0992 112.753 33.9155V13.9436C112.751 13.7633 112.63 13.6426 112.451 13.6426Z" fill="#204156"/>
    <path d="M72.3984 38.3457V41.1031C72.3984 41.2845 72.5185 41.4047 72.6988 41.4047H82.9163C83.0989 41.4047 83.2196 41.2839 83.2196 41.1031V38.3457C83.2196 38.1666 83.0989 38.0459 82.9163 38.0459H72.6988C72.5185 38.0459 72.3984 38.1666 72.3984 38.3457Z" fill="#204156"/>
    <path d="M69.8039 6.50171C69.7992 6.49705 69.7963 6.49121 69.7922 6.48713C69.7916 6.48655 69.791 6.48655 69.791 6.48655C69.7385 6.43463 69.6639 6.4043 69.5752 6.4043H69.5717H0.701387C0.678637 6.4043 0.657054 6.40663 0.636054 6.41013C0.630221 6.4113 0.624971 6.41363 0.618555 6.4148C0.605138 6.4183 0.590555 6.42121 0.578305 6.42646C0.575972 6.42705 0.574222 6.42821 0.572472 6.42938C0.465723 6.47313 0.400391 6.57288 0.400391 6.70471V6.70588V41.0988V41.1011C0.400391 41.2061 0.441223 41.2883 0.510056 41.3408C0.515306 41.3461 0.519973 41.3507 0.526973 41.3542V41.3548C0.574805 41.3852 0.633138 41.4015 0.701387 41.4015H69.5711H69.5746C69.6761 41.4015 69.7584 41.3624 69.8103 41.2953C69.8511 41.2452 69.875 41.1792 69.875 41.1005V41.0982V6.70588V6.70471C69.875 6.62246 69.8488 6.55304 69.8039 6.50171ZM4.05551 38.0445C4.03392 38.0445 4.01292 38.0427 3.99426 38.0398C3.98842 38.0386 3.98201 38.0357 3.97618 38.034C3.96218 38.031 3.94818 38.0281 3.93534 38.0229C3.93301 38.0223 3.93184 38.0205 3.92951 38.02C3.82334 37.9768 3.75859 37.8776 3.75801 37.747V12.818V10.0617C3.75801 9.9293 3.82334 9.8308 3.92951 9.7864C3.93243 9.7858 3.93418 9.7841 3.93593 9.7835C3.94818 9.7788 3.98784 9.7689 3.99426 9.7672C4.01409 9.7643 4.03509 9.7625 4.05667 9.7625H66.2182C66.2403 9.7625 66.2608 9.7643 66.2806 9.7672C66.287 9.7689 66.2928 9.7713 66.2981 9.773C66.3121 9.7759 66.3261 9.7788 66.3389 9.7841C66.3418 9.7847 66.343 9.7864 66.3453 9.787C66.4521 9.8308 66.5168 9.9299 66.5168 10.0623V37.7475C66.5163 37.8788 66.4509 37.978 66.3459 38.0211C66.3436 38.0217 66.3424 38.0235 66.3395 38.024C66.3273 38.0287 66.3127 38.0322 66.2993 38.0351C66.2928 38.0369 66.2876 38.0398 66.2812 38.041C66.2613 38.0445 66.2421 38.0456 66.2205 38.0456H4.05551V38.0445Z" fill="#204156"/>
    </g>
    <defs>
    <clipPath id="clip0_406_206">
    <rect width="167" height="48" fill="white" transform="translate(0.400391)"/>
    </clipPath>
    </defs>
    </svg>

    <svg id="trust-pilot-logo" width="157" height="48" viewBox="0 0 157 48" fill="none" xmlns="http://www.w3.org/2000/svg">
    <path d="M41.2826 14.4663H56.9418V17.3814H50.7762V33.8146H47.3967V17.3814H41.2568L41.2826 14.4663ZM56.2711 19.8064H59.1604V22.5152H59.212C59.3152 22.1282 59.4958 21.7671 59.7538 21.4059C60.0118 21.0447 60.3213 20.7093 60.7083 20.4256C61.0695 20.116 61.4822 19.8838 61.9466 19.7032C62.3852 19.5227 62.8495 19.4195 63.3139 19.4195C63.6751 19.4195 63.933 19.4453 64.062 19.4453C64.191 19.4711 64.3458 19.4969 64.4748 19.4969V22.4636C64.2684 22.412 64.0362 22.3862 63.804 22.3604C63.5719 22.3346 63.3655 22.3088 63.1333 22.3088C62.6173 22.3088 62.1272 22.412 61.6628 22.6184C61.1985 22.8248 60.8115 23.1343 60.4503 23.5213C60.115 23.9341 59.8312 24.4242 59.6248 25.0176C59.4184 25.6109 59.3152 26.3074 59.3152 27.0814V33.7372H56.2195L56.2711 19.8064ZM78.6635 33.8146H75.6194V31.854H75.5678C75.1808 32.5763 74.6133 33.118 73.8651 33.5566C73.117 33.9952 72.3431 34.2015 71.5692 34.2015C69.7375 34.2015 68.396 33.763 67.5705 32.8343C66.745 31.9313 66.3322 30.5383 66.3322 28.7066V19.8064H69.4279V28.3971C69.4279 29.6354 69.6601 30.5125 70.1503 31.0026C70.6146 31.5186 71.2854 31.7766 72.1367 31.7766C72.7816 31.7766 73.3234 31.6734 73.762 31.467C74.2005 31.2606 74.5617 31.0026 74.8197 30.6673C75.1034 30.3319 75.284 29.9191 75.413 29.4548C75.542 28.9904 75.5936 28.4745 75.5936 27.9327V19.8064H78.6893V33.8146H78.6635ZM83.9263 29.3258C84.0294 30.2287 84.3648 30.8478 84.9582 31.2348C85.5515 31.596 86.2738 31.7766 87.0994 31.7766C87.3831 31.7766 87.7185 31.7508 88.0797 31.6992C88.4409 31.6476 88.802 31.5702 89.1116 31.4412C89.447 31.3122 89.7049 31.1316 89.9113 30.8736C90.1177 30.6157 90.2209 30.3061 90.1951 29.9191C90.1693 29.5322 90.0403 29.1968 89.7565 28.9388C89.4728 28.6808 89.1374 28.5002 88.7246 28.3197C88.3119 28.1649 87.8217 28.0359 87.28 27.9327C86.7382 27.8295 86.1965 27.7005 85.6289 27.5715C85.0614 27.4425 84.4938 27.2878 83.9521 27.1072C83.4103 26.9266 82.9459 26.6944 82.5074 26.359C82.0946 26.0495 81.7335 25.6625 81.5013 25.1724C81.2433 24.6822 81.1143 24.1146 81.1143 23.3923C81.1143 22.6184 81.2949 21.9992 81.6819 21.4833C82.043 20.9673 82.5332 20.5546 83.1007 20.245C83.6683 19.9354 84.3132 19.7032 85.0098 19.5742C85.7063 19.4453 86.377 19.3937 86.9962 19.3937C87.7185 19.3937 88.4151 19.4711 89.06 19.6258C89.7049 19.7806 90.3241 20.0128 90.84 20.374C91.3818 20.7093 91.8204 21.1737 92.1557 21.7155C92.5169 22.2572 92.7233 22.9279 92.8265 23.7019H89.6018C89.447 22.9537 89.1116 22.4636 88.5956 22.2056C88.0539 21.9476 87.4605 21.8187 86.764 21.8187C86.5576 21.8187 86.2738 21.8444 85.9901 21.8702C85.6805 21.9218 85.4225 21.9734 85.1388 22.0766C84.8808 22.1798 84.6486 22.3346 84.468 22.5152C84.2874 22.6958 84.1842 22.9537 84.1842 23.2633C84.1842 23.6503 84.3132 23.9341 84.5712 24.1662C84.8292 24.3984 85.1645 24.579 85.6031 24.7596C86.0159 24.9144 86.506 25.0434 87.0478 25.1466C87.5895 25.2497 88.1571 25.3787 88.7246 25.5077C89.2922 25.6367 89.8339 25.7915 90.3757 25.9721C90.9174 26.1527 91.4076 26.3848 91.8204 26.7202C92.2331 27.0298 92.5943 27.4168 92.8523 27.8811C93.1102 28.3455 93.2392 28.9388 93.2392 29.6096C93.2392 30.4351 93.0586 31.1316 92.6717 31.725C92.2847 32.2925 91.7946 32.7827 91.2012 33.1438C90.6079 33.505 89.9113 33.763 89.189 33.9436C88.4409 34.0984 87.7185 34.2015 86.9962 34.2015C86.1191 34.2015 85.2935 34.0984 84.5454 33.892C83.7973 33.6856 83.1265 33.376 82.5848 32.989C82.043 32.5763 81.6045 32.0861 81.2949 31.467C80.9853 30.8736 80.8047 30.1513 80.7789 29.3H83.9005V29.3258H83.9263ZM94.1164 19.8064H96.4639V15.5756H99.5597V19.7806H102.346V22.0766H99.5597V29.558C99.5597 29.8933 99.5855 30.1513 99.6113 30.4093C99.6371 30.6415 99.7145 30.8478 99.7919 31.0026C99.895 31.1574 100.05 31.2864 100.23 31.3638C100.437 31.4412 100.695 31.4928 101.056 31.4928C101.262 31.4928 101.494 31.4928 101.701 31.467C101.907 31.4412 102.139 31.4154 102.346 31.3638V33.763C102.01 33.8146 101.675 33.8404 101.34 33.8662C101.004 33.9178 100.695 33.9178 100.334 33.9178C99.5081 33.9178 98.8631 33.8404 98.373 33.6856C97.8828 33.5308 97.4959 33.2986 97.2121 33.0149C96.9283 32.7053 96.7477 32.3441 96.6445 31.9055C96.5413 31.467 96.4897 30.9252 96.4639 30.3577V22.1024H94.1164V19.7548V19.8064ZM104.513 19.8064H107.428V21.7155H107.48C107.918 20.8899 108.511 20.3224 109.285 19.9612C110.059 19.6 110.885 19.4195 111.814 19.4195C112.923 19.4195 113.877 19.6 114.703 20.0128C115.528 20.3998 116.199 20.9157 116.741 21.6123C117.283 22.283 117.695 23.0827 117.953 23.9857C118.211 24.8886 118.366 25.8689 118.366 26.875C118.366 27.8295 118.237 28.7324 118.005 29.6096C117.747 30.4867 117.386 31.2864 116.896 31.9571C116.406 32.6279 115.786 33.1696 115.013 33.5824C114.239 33.9952 113.361 34.2015 112.33 34.2015C111.891 34.2015 111.427 34.15 110.988 34.0726C110.549 33.9952 110.111 33.8662 109.698 33.6856C109.285 33.505 108.898 33.2728 108.563 32.989C108.202 32.7053 107.918 32.3699 107.686 32.0087H107.634V38.9999H104.539V19.8064H104.513ZM115.322 26.8234C115.322 26.2043 115.245 25.5851 115.064 24.9918C114.909 24.3984 114.651 23.8825 114.316 23.4181C113.981 22.9537 113.568 22.5926 113.103 22.3088C112.613 22.025 112.046 21.896 111.427 21.896C110.137 21.896 109.156 22.3346 108.486 23.2375C107.841 24.1404 107.505 25.3529 107.505 26.8492C107.505 27.5715 107.583 28.2165 107.763 28.8098C107.944 29.4032 108.176 29.9191 108.537 30.3577C108.873 30.7962 109.285 31.1316 109.776 31.3896C110.266 31.6476 110.807 31.7766 111.452 31.7766C112.175 31.7766 112.742 31.6218 113.232 31.338C113.723 31.0542 114.11 30.6673 114.445 30.2287C114.755 29.7643 114.987 29.2484 115.116 28.655C115.245 28.0359 115.322 27.4425 115.322 26.8234ZM120.765 14.4663H123.861V17.3814H120.765V14.4663ZM120.765 19.8064H123.861V33.8146H120.765V19.8064ZM126.621 14.4663H129.717V33.8146H126.621V14.4663ZM139.159 34.2015C138.05 34.2015 137.044 34.021 136.167 33.634C135.29 33.247 134.567 32.7569 133.948 32.1119C133.355 31.467 132.89 30.6673 132.581 29.7643C132.271 28.8614 132.091 27.8553 132.091 26.7976C132.091 25.7399 132.245 24.7596 132.581 23.8567C132.89 22.9537 133.355 22.1798 133.948 21.5091C134.541 20.8641 135.29 20.3482 136.167 19.987C137.044 19.6258 138.05 19.4195 139.159 19.4195C140.268 19.4195 141.275 19.6 142.152 19.987C143.029 20.3482 143.751 20.8641 144.37 21.5091C144.964 22.154 145.428 22.9537 145.738 23.8567C146.047 24.7596 146.228 25.7399 146.228 26.7976C146.228 27.8811 146.073 28.8614 145.738 29.7643C145.402 30.6673 144.964 31.4412 144.37 32.1119C143.777 32.7569 143.029 33.2728 142.152 33.634C141.275 33.9952 140.294 34.2015 139.159 34.2015ZM139.159 31.7508C139.83 31.7508 140.449 31.596 140.939 31.3122C141.455 31.0284 141.842 30.6415 142.177 30.1771C142.513 29.7127 142.745 29.171 142.9 28.6034C143.055 28.0101 143.132 27.4167 143.132 26.7976C143.132 26.2043 143.055 25.6109 142.9 25.0176C142.745 24.4242 142.513 23.9083 142.177 23.4439C141.842 22.9795 141.429 22.6184 140.939 22.3346C140.423 22.0508 139.83 21.896 139.159 21.896C138.488 21.896 137.869 22.0508 137.379 22.3346C136.863 22.6184 136.476 23.0053 136.141 23.4439C135.805 23.9083 135.573 24.4242 135.418 25.0176C135.264 25.6109 135.186 26.2043 135.186 26.7976C135.186 27.4167 135.264 28.0101 135.418 28.6034C135.573 29.1968 135.805 29.7127 136.141 30.1771C136.476 30.6415 136.889 31.0284 137.379 31.3122C137.895 31.6218 138.488 31.7508 139.159 31.7508ZM147.156 19.8064H149.504V15.5756H152.6V19.7806H155.386V22.0766H152.6V29.558C152.6 29.8933 152.626 30.1513 152.651 30.4093C152.677 30.6415 152.755 30.8478 152.832 31.0026C152.935 31.1574 153.09 31.2864 153.271 31.3638C153.477 31.4412 153.735 31.4928 154.096 31.4928C154.302 31.4928 154.535 31.4928 154.741 31.467C154.947 31.4412 155.18 31.4154 155.386 31.3638V33.763C155.051 33.8146 154.715 33.8404 154.38 33.8662C154.044 33.9178 153.735 33.9178 153.374 33.9178C152.548 33.9178 151.903 33.8404 151.413 33.6856C150.923 33.5308 150.536 33.2986 150.252 33.0149C149.968 32.7053 149.788 32.3441 149.685 31.9055C149.581 31.467 149.53 30.9252 149.504 30.3577V22.1024H147.156V19.7548V19.8064Z" fill="black"/>
    <path d="M37.6709 14.4664H23.508L19.1482 1L14.7625 14.4664L0.599609 14.4406L12.0538 22.7733L7.66818 36.2397L19.1224 27.907L30.5765 36.2397L26.2167 22.7733L37.6709 14.4664Z" fill="#00B67A"/>
    <path d="M27.1973 25.8176L26.217 22.7734L19.1484 27.9072L27.1973 25.8176Z" fill="#005128"/>
    </svg>

    <svg id="launch-darkly-logo" width="203" height="48" viewBox="0 0 203 48" fill="none" xmlns="http://www.w3.org/2000/svg">
    <g clip-path="url(#clip0_406_223)">
    <path d="M12.864 32.9764V30.0305H4.13378V15.5753H0.799805V32.9764H12.864ZM21.2505 32.4283C21.9723 31.8803 22.5223 31.1609 22.9004 30.2703V32.9764H26.0968V24.5841C26.0968 23.6936 25.8905 22.8714 25.4437 22.1863C24.997 21.5013 24.3438 20.9532 23.519 20.5764C22.6941 20.1996 21.6973 19.9941 20.5631 19.9941C19.9443 19.9941 19.3257 20.0626 18.7414 20.1653C18.1572 20.2681 17.6072 20.4394 17.0916 20.6449C16.5761 20.8504 16.0948 21.0902 15.6824 21.3642L15.7855 24.3444C16.5761 23.8305 17.3322 23.4537 18.0884 23.1797C18.8446 22.9057 19.6694 22.7686 20.5975 22.7686C21.3193 22.7686 21.9035 22.94 22.316 23.2825C22.7285 23.625 22.9346 24.0703 22.9346 24.6184V25.4747H20.0475C18.329 25.4747 16.9885 25.8172 15.9917 26.5366C14.995 27.2559 14.5139 28.2493 14.5139 29.5168C14.5139 30.2361 14.6857 30.8527 14.995 31.435C15.3387 32.0172 15.7855 32.4626 16.4042 32.7708C17.0228 33.1134 17.7447 33.2505 18.5353 33.2505C19.635 33.2505 20.5287 32.9765 21.2505 32.4283ZM18.3634 30.2703C18.0196 29.9963 17.8134 29.6194 17.8134 29.14C17.8134 28.5576 18.054 28.1123 18.5695 27.8041C19.0508 27.4957 19.8069 27.3245 20.7693 27.3245H22.8316V27.8041C22.8316 28.215 22.7285 28.6261 22.4879 29.0714C22.2472 29.5168 21.9035 29.8936 21.4223 30.2019C20.9412 30.5101 20.3912 30.6813 19.7725 30.6813C19.1883 30.6813 18.7071 30.5444 18.3634 30.2703ZM36.2706 32.394C37.0268 31.7432 37.5767 30.8527 37.9204 29.7565V32.9764H41.1512V20.3709H37.9204V26.2626C37.9204 27.119 37.7828 27.8725 37.5079 28.5234C37.233 29.1742 36.8549 29.7222 36.3394 30.0648C35.8238 30.4416 35.2395 30.6128 34.5864 30.6128C33.8646 30.6128 33.3147 30.4073 32.9022 29.9963C32.5241 29.5852 32.318 28.9686 32.318 28.1809V20.3709H29.087V28.2493C29.087 29.8936 29.4651 31.1267 30.2556 32.0172C31.0462 32.9079 32.0773 33.3533 33.4177 33.3533C34.5864 33.3533 35.5144 33.0449 36.2706 32.394ZM47.9223 27.0847C47.9223 26.2283 48.0598 25.4747 48.3348 24.8239C48.6097 24.1731 48.9878 23.625 49.4691 23.2825C49.9502 22.9057 50.5344 22.7344 51.1876 22.7344C51.9094 22.7344 52.4592 22.94 52.8717 23.351C53.2498 23.762 53.4561 24.3787 53.4561 25.1664V33.0107H56.7213V25.1321C56.7213 23.488 56.3432 22.2549 55.5527 21.3642C54.7621 20.4736 53.731 20.0283 52.3906 20.0283C51.2562 20.0283 50.3283 20.3709 49.5721 20.9874C48.8503 21.6383 48.3004 22.5289 47.9223 23.625V20.4051H44.6915V33.0107H47.9223V27.0847ZM67.6511 33.2505C68.0636 33.1819 68.4761 33.0791 68.8198 32.9764C69.1979 32.8736 69.5073 32.7366 69.851 32.6339L69.8854 29.5852C69.3698 29.8593 68.8198 30.0305 68.2355 30.1676C67.6511 30.3045 67.0669 30.3731 66.4826 30.3731C65.6233 30.3731 64.8671 30.2019 64.2829 29.8936C63.6985 29.5852 63.2518 29.14 62.9767 28.5576C62.7018 28.0095 62.5644 27.3587 62.5644 26.6736C62.5644 25.9886 62.7018 25.372 62.9767 24.7896C63.2518 24.2416 63.6985 23.7963 64.2829 23.4537C64.8671 23.1112 65.5889 22.9742 66.4139 22.9742C67.0669 22.9742 67.6511 23.0426 68.2355 23.1797C68.8198 23.3168 69.3354 23.5222 69.851 23.762L69.8166 20.6106C69.4385 20.4736 69.0948 20.3366 68.7511 20.2681C68.4073 20.1653 68.0292 20.0968 67.5825 20.0626C67.17 19.9941 66.7232 19.9598 66.2421 19.9598C64.7985 19.9598 63.5611 20.2681 62.4956 20.8504C61.4301 21.4327 60.6052 22.2549 60.0209 23.2482C59.4366 24.2759 59.1616 25.4063 59.1616 26.7079C59.1616 27.9753 59.4709 29.14 60.0552 30.1333C60.6396 31.1267 61.4645 31.9146 62.53 32.4626C63.5955 33.0106 64.8328 33.319 66.2421 33.319C66.7576 33.3533 67.2388 33.319 67.6511 33.2505ZM76.0034 32.9764V27.0847C76.0034 26.2283 76.1408 25.4747 76.4157 24.8239C76.6908 24.1731 77.0689 23.625 77.5844 23.2825C78.1 22.9057 78.65 22.7344 79.303 22.7344C80.059 22.7344 80.609 22.94 80.9871 23.351C81.3652 23.762 81.5714 24.3787 81.5714 25.1664V33.0107H84.8022V25.1321C84.8022 23.488 84.4243 22.2549 83.6337 21.3642C82.8432 20.4736 81.812 20.0283 80.4715 20.0283C79.3374 20.0283 78.3749 20.3709 77.6531 20.9874C76.897 21.6383 76.3471 22.5289 76.0034 23.625V15.5753H72.8068V32.9764H76.0034ZM95.2511 32.9764C97.1071 32.9764 98.6881 32.6339 99.9942 31.9146C101.3 31.1952 102.297 30.2019 102.984 28.9001C103.672 27.5985 104.016 26.0571 104.016 24.3101C104.016 22.5632 103.672 21.0217 102.984 19.72C102.297 18.4184 101.3 17.3907 99.9942 16.6714C98.6881 15.9521 97.1071 15.6095 95.2511 15.6095H88.5487V33.0107H95.2511V32.9764ZM91.8827 30.0305V18.5211H95.2167C96.9008 18.5211 98.207 19.0349 99.1349 20.0283C100.097 21.056 100.544 22.4604 100.544 24.2759C100.544 26.0914 100.063 27.5299 99.1349 28.5234C98.1726 29.5168 96.8664 30.0305 95.2167 30.0305H91.8827ZM112.471 32.4283C113.193 31.8803 113.743 31.1609 114.121 30.2703V32.9764H117.317V24.5841C117.317 23.6936 117.111 22.8714 116.664 22.1863C116.217 21.5013 115.564 20.9532 114.739 20.5764C113.914 20.1996 112.918 19.9941 111.783 19.9941C111.165 19.9941 110.546 20.0626 109.962 20.1653C109.378 20.2681 108.828 20.4394 108.312 20.6449C107.796 20.8504 107.315 21.0902 106.903 21.3642L107.006 24.3444C107.796 23.8305 108.553 23.4537 109.309 23.1797C110.065 22.9057 110.89 22.7686 111.818 22.7686C112.54 22.7686 113.124 22.94 113.536 23.2825C113.949 23.625 114.155 24.0703 114.155 24.6184V25.4747H111.337C109.618 25.4747 108.278 25.8172 107.281 26.5366C106.284 27.2559 105.803 28.2493 105.803 29.5168C105.803 30.2361 105.975 30.8527 106.284 31.435C106.628 32.0172 107.075 32.4626 107.693 32.7708C108.312 33.1134 109.034 33.2505 109.824 33.2505C110.89 33.2505 111.749 32.9765 112.471 32.4283ZM109.584 30.2703C109.24 29.9963 109.034 29.6194 109.034 29.14C109.034 28.5576 109.274 28.1123 109.79 27.8041C110.271 27.4957 111.027 27.3245 111.99 27.3245H114.052V27.8041C114.052 28.215 113.949 28.6261 113.708 29.0714C113.468 29.5168 113.124 29.8936 112.643 30.2019C112.162 30.5101 111.646 30.6471 111.027 30.6471C110.443 30.6813 109.962 30.5444 109.584 30.2703ZM123.848 32.9764V27.5985C123.848 26.194 124.157 25.1321 124.741 24.4128C125.326 23.6936 126.151 23.3168 127.147 23.3168C127.628 23.3168 128.075 23.3852 128.488 23.5222V20.4051C128.282 20.3366 128.075 20.3024 127.869 20.2681C127.663 20.2339 127.422 20.2339 127.182 20.2339C126.391 20.2339 125.704 20.5079 125.154 21.056C124.604 21.604 124.157 22.3918 123.882 23.351V20.3366H120.651V32.9422H123.848V32.9764ZM133.78 32.9764V28.9001L134.949 27.8041L138.73 32.9764H142.58L137.184 25.6118L142.477 20.3709H138.421L133.815 24.8239V15.5753H130.619V32.9764H133.78ZM147.77 32.9764V15.5753H144.539V32.9764H147.77ZM152.719 37.6692C153.922 37.6692 154.885 37.4295 155.64 36.9499C156.397 36.4703 157.016 35.614 157.531 34.415L163.339 20.3709H160.006L156.604 29.1742L153.097 20.3709H149.763L154.954 32.9422L154.678 33.593C154.506 34.0041 154.301 34.3466 153.992 34.5178C153.716 34.7234 153.269 34.8261 152.684 34.8261H150.004V37.6692H152.719Z" fill="black"/>
    <path d="M187.124 39.793C186.884 39.793 186.643 39.656 186.506 39.4162C186.403 39.1764 186.403 38.9367 186.575 38.7311L193.896 28.6946L181.075 33.9012C180.972 33.9355 180.903 33.9698 180.801 33.9698C180.491 33.9698 180.216 33.7643 180.148 33.4902C180.044 33.2162 180.182 32.9079 180.422 32.7367L191.697 26.1256L171.864 24.9952C171.452 24.9609 171.211 24.6526 171.211 24.3101C171.211 24.0018 171.417 23.6593 171.864 23.625L191.697 22.4946L180.422 15.8836C180.182 15.7123 180.044 15.404 180.148 15.13C180.25 14.856 180.491 14.6504 180.801 14.6504C180.903 14.6504 180.972 14.6847 181.075 14.7189L193.896 19.9256L186.575 9.85485C186.438 9.64932 186.403 9.37529 186.506 9.16976C186.61 8.92999 186.85 8.79297 187.124 8.79297C187.296 8.79297 187.468 8.86148 187.605 8.99849L202.18 23.4881C202.385 23.6935 202.489 24.0018 202.489 24.2758C202.489 24.5498 202.385 24.824 202.18 25.0637L187.605 39.5875C187.468 39.7244 187.296 39.793 187.124 39.793Z" fill="black"/>
    </g>
    <defs>
    <clipPath id="clip0_406_223">
    <rect width="202" height="48" fill="white" transform="translate(0.799805)"/>
    </clipPath>
    </defs>
    </svg>

    <svg id="wealth-simple-logo" width="180" height="48" viewBox="0 0 180 48" fill="none" xmlns="http://www.w3.org/2000/svg">
    <path fill-rule="evenodd" clip-rule="evenodd" d="M26.2179 14.3648C26.9321 14.5354 27.5585 14.9629 27.9776 15.5659C28.412 16.3264 28.6189 17.1957 28.5735 18.0703C28.5729 19.2199 28.3971 20.3627 28.0521 21.4593C27.6465 22.7392 27.139 23.9846 26.5345 25.1834L25.8269 26.7383L22.3448 18.2845C22.1746 17.8818 22.0315 17.4681 21.9166 17.0462C21.8254 16.7242 21.7692 16.3933 21.749 16.0593C21.7313 15.637 21.8824 15.225 22.1688 14.9141C22.4552 14.6032 22.8535 14.419 23.2759 14.4021V14.1507H12.7738V14.4021C13.1311 14.4674 13.4765 14.5867 13.7979 14.7559C14.1259 14.9765 14.4023 15.2655 14.6079 15.6031C14.9707 16.1734 15.2822 16.7748 15.539 17.4L17.1776 21.3103L14.2169 27.1666L9.80379 16.9252C9.6902 16.7205 9.59666 16.5054 9.52448 16.2828C9.48684 16.1208 9.46502 15.9555 9.45931 15.7893C9.45693 15.4776 9.56964 15.1759 9.77586 14.9421C10.0304 14.6674 10.3508 14.4622 10.7069 14.3462V14.1134H0V14.3648C0.870736 14.6307 1.65911 15.1146 2.29034 15.7707C3.11876 16.7236 3.79691 17.7973 4.30138 18.9548L11.0793 34.019H11.3586L17.4662 21.9155L22.6893 34.019H22.9686L29.1786 20.6121C29.8366 19.0852 30.6675 17.6388 31.6552 16.3014C32.3003 15.4631 33.1324 14.7872 34.0852 14.3276V14.0855H26.2179V14.3648Z" fill="#54575A"/>
    <path d="M43.2931 27.6693C42.6228 29.3917 41.1424 30.239 38.8055 30.239C37.5374 30.3059 36.3032 29.8163 35.4259 28.8983C34.5301 27.8165 34.0747 26.437 34.1503 25.0345H43.4607V24.8576C43.4758 23.7415 43.1511 22.6472 42.5297 21.72C41.8935 20.8242 41.033 20.1114 40.0345 19.6531C38.939 19.1538 37.7469 18.9027 36.5431 18.9176C35.2035 18.9002 33.8812 19.2204 32.6979 19.8486C31.5443 20.4603 30.5787 21.3743 29.9048 22.4928C29.1862 23.702 28.8246 25.09 28.8621 26.4962C28.8341 27.7985 29.1556 29.0844 29.7931 30.2203C30.4211 31.3064 31.3359 32.1987 32.4372 32.7993C33.6157 33.4401 34.9414 33.7611 36.2824 33.7303C37.9902 33.8101 39.6695 33.2713 41.0121 32.2128C42.3587 31.0618 43.2637 29.4788 43.5724 27.7345L43.2931 27.6693ZM34.7555 20.7145C34.9743 19.9019 35.7109 19.3371 36.5524 19.3366C36.808 19.3377 37.0598 19.3982 37.2879 19.5134C37.5272 19.6452 37.7241 19.8421 37.8559 20.0814C38.0013 20.3124 38.12 20.5591 38.2097 20.8169C38.3288 21.1849 38.4008 21.5666 38.4238 21.9528C38.4238 22.409 38.489 23.0421 38.489 23.8148V24.5224H34.1503C34.1539 23.791 34.2005 23.0604 34.29 22.3345C34.3937 21.7689 34.5495 21.2141 34.7555 20.6772V20.7145Z" fill="#54575A"/>
    <path d="M59.9119 31.44C59.822 31.5184 59.705 31.5585 59.586 31.5517H59.2694C58.9661 31.5572 58.6839 31.3965 58.5339 31.1327C58.32 30.608 58.2338 30.04 58.2826 29.4755V22.7255C58.3656 21.6555 58.032 20.5947 57.3515 19.7648C56.6 19.0634 55.5805 18.7236 54.5584 18.8338C53.4283 18.8531 52.3039 18.9999 51.2067 19.2713C49.9605 19.5519 48.7513 19.9768 47.6036 20.5375C46.6677 20.9256 45.824 21.5061 45.127 22.2413C44.6397 22.7429 44.3517 23.4049 44.317 24.1034C44.2947 24.6485 44.5125 25.176 44.9129 25.5465C45.3569 25.9193 45.9261 26.109 46.505 26.0772C47.207 26.0578 47.8743 25.7676 48.367 25.2672C48.9626 24.644 49.2698 23.7998 49.2143 22.9396V22.4462C49.1686 21.725 49.3834 21.0114 49.8195 20.4351C50.1681 19.9969 50.7028 19.7486 51.2626 19.7648C51.6623 19.7465 52.0574 19.8575 52.3891 20.0813C52.7452 20.3616 52.9868 20.7622 53.0688 21.2079C53.2309 21.9507 53.3028 22.7103 53.2829 23.4703V24.9507C51.8398 25.3696 50.4898 25.8258 49.4005 26.2541C48.3023 26.6714 47.2297 27.1533 46.1884 27.6972C45.0214 28.2107 44.2509 29.3465 44.2053 30.6207C44.1936 31.5021 44.6145 32.3334 45.3319 32.8458C46.1793 33.4355 47.1958 33.7329 48.2274 33.6931C49.2897 33.7118 50.3418 33.4823 51.2998 33.0227C52.0979 32.5977 52.7962 32.0073 53.3481 31.291C53.413 31.9621 53.7131 32.5887 54.1953 33.06C54.7078 33.5127 55.3739 33.7525 56.0574 33.7303C56.8245 33.7413 57.5804 33.5451 58.2453 33.1624C58.9604 32.7819 59.5686 32.2281 60.0143 31.5517L59.9119 31.44ZM51.6163 31.6913C50.527 31.6913 49.9591 30.9465 49.9591 29.4289C49.9484 28.5187 50.2808 27.6379 50.8901 26.9617C51.5738 26.2857 52.4059 25.7788 53.3201 25.4813V29.6896C53.3581 30.2227 53.1954 30.7507 52.8639 31.17C52.5739 31.5318 52.1258 31.7298 51.6629 31.7007L51.6163 31.6913Z" fill="#54575A"/>
    <path fill-rule="evenodd" clip-rule="evenodd" d="M59.9119 32.9948C60.4102 33.0001 60.8756 32.7463 61.1409 32.3245C61.4667 31.5681 61.601 30.7431 61.5319 29.9224V18.1076C61.6166 17.1083 61.4199 16.1053 60.964 15.212C60.6402 14.666 60.0436 14.3409 59.4092 14.3648V14.0483C60.5823 13.7596 61.8112 13.4803 63.0123 13.1172C64.2133 12.7541 65.4143 12.4562 66.4664 12.0745V30.4903C66.417 31.1276 66.5258 31.7672 66.783 32.3524C67.0271 32.6988 67.4207 32.9094 67.8444 32.9203V33.2369H59.9119V32.9948Z" fill="#54575A"/>
    <path fill-rule="evenodd" clip-rule="evenodd" d="M70.386 32.9203C69.7264 32.1651 69.4065 31.1719 69.5015 30.1738V20.4631H67.3508L67.2856 20.221C68.1441 19.7973 68.9582 19.2889 69.7156 18.7034C70.5927 18.0106 71.4289 17.2676 72.2201 16.4782C72.9962 15.6961 73.715 14.8591 74.3708 13.9738L74.6222 14.0482V19.2341H77.8622L77.1639 20.4351H74.6222V29.2148C74.5753 29.8588 74.7074 30.5033 75.0039 31.0769C75.2535 31.4363 75.6649 31.649 76.1025 31.6448C76.3404 31.6319 76.577 31.6008 76.8101 31.5517C77.0381 31.5029 77.2535 31.4078 77.4432 31.2724L77.6201 31.5238C76.877 32.1553 76.0723 32.7105 75.2181 33.181C74.4858 33.5536 73.6748 33.7451 72.8532 33.7396C71.9578 33.7931 71.0755 33.5034 70.386 32.9296V32.9203Z" fill="#54575A"/>
    <path fill-rule="evenodd" clip-rule="evenodd" d="M93.1781 32.3896C92.9454 31.6979 92.8505 30.9672 92.8988 30.239V22.8652C92.8988 20.221 91.8002 18.8803 89.6495 18.8803C89.0753 18.8683 88.5029 18.9501 87.955 19.1224C87.3576 19.3343 86.7885 19.6188 86.2605 19.9696C85.7019 20.3607 84.9943 20.9007 84.1843 21.5617V12.1396C83.0485 12.4934 81.9312 12.8472 80.7581 13.1638C79.585 13.4803 78.3933 13.7969 77.0898 14.0948V14.4114C77.7242 14.3874 78.3209 14.7126 78.6447 15.2586C79.0822 16.1546 79.275 17.1503 79.2033 18.1448V29.6896C79.2788 30.5798 79.1349 31.4749 78.7843 32.2965C78.5038 32.7445 78.0093 33.0129 77.4809 33.0041V33.3207H85.525V33.0041C85.1012 32.9957 84.7127 32.7661 84.5009 32.399C84.2324 31.7157 84.1241 30.9799 84.1843 30.2483V22.0552C84.5322 21.7492 84.9246 21.4981 85.3481 21.3103C85.6741 21.1412 86.0333 21.0459 86.4002 21.031C86.873 21.0204 87.316 21.2614 87.564 21.6641C87.9051 22.3269 88.0535 23.072 87.9923 23.8148V30.239C88.0037 30.8056 87.9695 31.3723 87.8898 31.9334C87.8576 32.2299 87.7186 32.5046 87.4988 32.7062C87.2625 32.879 86.9811 32.9792 86.6888 32.9948V33.3114H94.2023V32.9948C93.7758 32.996 93.3828 32.7638 93.1781 32.3896Z" fill="#54575A"/>
    <path fill-rule="evenodd" clip-rule="evenodd" d="M99.5648 33.5255C98.8945 33.3766 98.2614 33.2741 97.7028 33.1717C97.2155 33.0693 96.7201 33.0101 96.2224 32.9948C95.9978 33.0013 95.7738 33.0231 95.5521 33.06C95.3702 33.1183 95.1928 33.1898 95.0214 33.2741V26.7569L95.31 26.6824C96.1401 28.0228 97.074 29.296 98.1031 30.4903C98.7606 31.2866 99.5475 31.9664 100.431 32.5014C101.072 32.8797 101.8 33.088 102.544 33.1066C103.081 33.1556 103.616 32.9918 104.034 32.6503C104.347 32.3312 104.512 31.8958 104.49 31.4493C104.514 30.8854 104.281 30.341 103.857 29.969C103.162 29.4522 102.393 29.0441 101.576 28.7586L99.5276 27.9486C98.2599 27.5148 97.0873 26.8416 96.0735 25.9655C95.4147 25.3015 95.0579 24.3959 95.0866 23.461C95.0611 22.6313 95.2955 21.8143 95.7569 21.1241C96.2385 20.4003 96.9079 19.821 97.6935 19.4483C98.6431 19.0069 99.6817 18.7902 100.729 18.8152C101.352 18.8077 101.975 18.8544 102.591 18.9548C103.187 19.0666 103.754 19.1317 104.211 19.2434C104.667 19.3552 105.058 19.3831 105.309 19.3831C105.473 19.403 105.639 19.403 105.803 19.3831L106.119 19.2807L106.51 24.569L106.259 24.6434C105.391 23.1715 104.322 21.8273 103.084 20.6493C102.328 19.9219 101.338 19.4864 100.291 19.4203C99.7791 19.3916 99.2747 19.5542 98.8759 19.8766C98.5027 20.1773 98.2924 20.6358 98.3079 21.1148C98.2827 21.6331 98.4911 22.1354 98.8759 22.4834C99.4241 22.9361 100.057 23.2747 100.738 23.4797L103.168 24.2897C104.383 24.6193 105.507 25.221 106.454 26.0493C107.121 26.7235 107.478 27.6437 107.441 28.591C107.502 30.0256 106.918 31.4123 105.849 32.371C104.642 33.3307 103.126 33.8173 101.585 33.7397C100.898 33.7286 100.213 33.6601 99.5369 33.5348L99.5648 33.5255Z" fill="#54575A"/>
    <path fill-rule="evenodd" clip-rule="evenodd" d="M111.492 17.9586C112.296 17.9817 113.075 17.6742 113.647 17.1077C114.218 16.5413 114.533 15.7654 114.517 14.9607C114.498 14.204 114.199 13.4813 113.679 12.931C113.125 12.3103 112.323 11.9689 111.492 12C110.977 11.9943 110.472 12.1399 110.039 12.419C109.588 12.6921 109.208 13.0687 108.931 13.5176C108.659 13.9504 108.511 14.4495 108.503 14.9607C108.51 15.7659 108.846 16.5331 109.434 17.0834C109.968 17.6489 110.714 17.9661 111.492 17.9586Z" fill="#54575A"/>
    <path fill-rule="evenodd" clip-rule="evenodd" d="M140.381 32.4269C140.117 31.8273 140.009 31.171 140.065 30.5183V22.8652C140.065 20.2211 138.975 18.8804 136.825 18.8804C136.224 18.8838 135.628 18.978 135.056 19.1597C134.429 19.3877 133.837 19.701 133.296 20.0907C132.649 20.5136 132.027 20.9737 131.434 21.4686C131.351 20.8058 131.038 20.1931 130.549 19.7369C129.894 19.1738 129.048 18.8838 128.185 18.9269C127.215 18.9357 126.26 19.1649 125.392 19.5973C124.472 20.0284 123.629 20.6071 122.896 21.3104V18.8804C122.226 19.1224 121.481 19.4111 120.671 19.6531C119.861 19.8952 119.051 20.1838 118.241 20.4352C117.431 20.6866 116.761 20.8542 116.193 20.9938V21.3104C116.743 21.3206 117.249 21.6124 117.534 22.0831C117.85 22.9397 117.984 23.8532 117.925 24.7645V30.5183C117.988 31.1836 117.798 31.8483 117.394 32.3804C117.06 32.7256 116.599 32.9176 116.118 32.9111C115.614 32.9509 115.119 32.7549 114.778 32.3804C114.419 31.8295 114.258 31.1728 114.322 30.5183V18.778C113.232 19.1969 112.096 19.588 110.905 19.9417C109.713 20.2955 108.465 20.64 107.227 20.9286V21.208C107.906 21.2094 108.536 21.5615 108.894 22.139C109.274 23.0188 109.443 23.9753 109.387 24.9321V29.5873C109.439 30.4648 109.306 31.3435 108.996 32.1662C108.732 32.6571 108.213 32.9563 107.655 32.939V33.2555H124.237V32.939C123.817 32.8948 123.44 32.6618 123.213 32.3059C122.954 31.7212 122.845 31.0812 122.896 30.4438V21.9155C123.166 21.6504 123.482 21.436 123.827 21.2824C124.168 21.1117 124.545 21.0255 124.926 21.0311C125.415 20.9965 125.884 21.2277 126.155 21.6362C126.469 22.3074 126.603 23.0483 126.546 23.7869V30.4904C126.6 31.1278 126.491 31.7685 126.229 32.3524C126.01 32.6884 125.643 32.8995 125.243 32.9204V33.2369H132.858V32.9204C132.441 32.8958 132.056 32.6879 131.806 32.3524C131.568 31.7364 131.469 31.0748 131.518 30.4159V21.8783C131.826 21.6037 132.156 21.3546 132.505 21.1335C132.837 20.9349 133.216 20.8258 133.603 20.8169C134.078 20.8063 134.523 21.0516 134.767 21.4593C135.104 22.16 135.249 22.9375 135.186 23.7124V30.4159C135.244 31.0743 135.162 31.7377 134.944 32.3617C134.709 32.7127 134.304 32.9114 133.883 32.8831V33.1997H141.517V32.8831C141.079 33.0056 140.613 32.8185 140.381 32.4269Z" fill="#54575A"/>
    <path d="M157 22.9397C156.839 22.1206 156.474 21.3553 155.939 20.7145C155.042 19.5184 153.626 18.8257 152.131 18.8524C151.344 18.8371 150.562 18.9927 149.841 19.3086C149.137 19.6423 148.482 20.0715 147.895 20.5841V18.8431C147.225 19.0945 146.452 19.3366 145.642 19.6252C144.832 19.9138 143.984 20.1466 143.137 20.3979C142.29 20.6493 141.545 20.8541 140.847 21.031V21.3103C141.289 21.3562 141.719 21.4857 142.113 21.6921C142.457 21.9476 142.685 22.3295 142.746 22.7534C142.906 23.4114 142.978 24.0876 142.96 24.7645V34.5403C142.992 35.3459 142.907 36.1518 142.709 36.9331C142.608 37.4048 142.332 37.8206 141.936 38.0969C141.536 38.3278 141.092 38.4736 140.633 38.5252V38.8417H150.083V38.5252C149.449 38.5257 148.841 38.2706 148.398 37.8176C147.996 37.1251 147.82 36.3244 147.895 35.5272V32.8552C148.218 33.1003 148.58 33.2892 148.966 33.4138C149.515 33.5815 150.086 33.6663 150.66 33.6652C151.54 33.6643 152.412 33.4969 153.23 33.1717C154.03 32.8276 154.753 32.3239 155.352 31.6914C155.996 30.9717 156.487 30.1293 156.796 29.2148C157.17 28.173 157.356 27.0727 157.345 25.9655C157.348 24.9341 157.229 23.906 156.991 22.9024L157 22.9397ZM151.247 31.319C150.926 32.1651 150.139 32.7445 149.236 32.7993C148.935 32.8003 148.637 32.7402 148.36 32.6224C148.179 32.5305 148.012 32.4112 147.867 32.2686V21.0962C148.329 20.6867 148.909 20.4355 149.524 20.3793C150.26 20.3793 150.865 20.8728 151.386 21.8224C151.952 23.2831 152.193 24.8492 152.094 26.4124C152.094 28.7028 151.842 30.3321 151.275 31.319H151.247Z" fill="#54575A"/>
    <path fill-rule="evenodd" clip-rule="evenodd" d="M157.177 32.9948C157.678 33.0016 158.147 32.7478 158.415 32.3245C158.732 31.5656 158.863 30.7421 158.797 29.9224V18.1076C158.879 17.1095 158.686 16.108 158.238 15.2121C157.915 14.666 157.318 14.3409 156.684 14.3648V14.0483C157.847 13.7597 159.086 13.4804 160.287 13.1173C161.488 12.7542 162.679 12.4469 163.741 12.0652V30.4904C163.687 31.1278 163.796 31.7685 164.057 32.3524C164.302 32.6989 164.695 32.9094 165.119 32.9204V33.2369H157.177V32.9948Z" fill="#54575A"/>
    <path d="M179.373 27.6693C178.703 29.3917 177.185 30.2389 174.885 30.2389C173.619 30.2984 172.387 29.81 171.506 28.8983C170.604 27.8217 170.159 26.4347 170.268 25.0345H179.578V24.8576C179.588 23.7422 179.263 22.6494 178.647 21.72C178.01 20.8276 177.158 20.1102 176.17 19.6345C173.82 18.5838 171.119 18.6626 168.834 19.8486C167.679 20.4595 166.714 21.3737 166.041 22.4927C165.319 23.6946 164.951 25.0759 164.979 26.4776C164.951 27.7798 165.273 29.0658 165.91 30.2017C166.542 31.2881 167.46 32.1802 168.564 32.7807C169.742 33.4227 171.068 33.7437 172.409 33.7117C174.125 33.7907 175.813 33.2523 177.166 32.1941C178.494 31.0411 179.385 29.4665 179.69 27.7345L179.373 27.6693ZM170.835 20.7145C171.075 19.9163 171.799 19.3613 172.632 19.3365C172.888 19.3377 173.14 19.3982 173.368 19.5134C173.607 19.6452 173.804 19.8421 173.936 20.0814C174.081 20.3123 174.2 20.5591 174.29 20.8169C174.409 21.1849 174.481 21.5666 174.504 21.9527C174.504 22.4089 174.569 23.042 174.569 23.8148V24.5224H170.23C170.234 23.791 170.28 23.0604 170.37 22.3345C170.474 21.7689 170.629 21.2141 170.835 20.6772V20.7145Z" fill="#54575A"/>
    </svg>
</svg>